# xmcd
#
# Track frame offsets:
#	150
#	15872
#	28097
#	41485
#	54032
#	65557
#	79360
#	90502
#	103700
#	118955
#	136440
#	151130
#
# Disc length: 2238 seconds
#
# Revision: 1
# Processed by: cddbd v1.4PL0 Copyright (c) Steve Scherf et al.
# Submitted via: audiograbber 1.81.01
#
DISCID=9108bc0c
DTITLE=Bruno Martino - I Grandi Successi Originali cd2
DYEAR=1900
DGENRE=Pop
TTITLE0=Kissme, kissme
TTITLE1=Carnzone di orfeo
TTITLE2=A woman in love
TTITLE3=L'amore e una cosa meravigliosa
TTITLE4=Mai e poi mai
TTITLE5=Poi Luciana
TTITLE6=Too tounc
TTITLE7=Venus
TTITLE8='Na voce 'na chitarra (Poco 'e luna)
TTITLE9=Arrivederci
TTITLE10=Cry me a rive
TTITLE11=As time goes by
EXTD=
EXTT0=
EXTT1=
EXTT2=
EXTT3=
EXTT4=
EXTT5=
EXTT6=
EXTT7=
EXTT8=
EXTT9=
EXTT10=
EXTT11=
PLAYORDER=
